<?xml version="1.0" encoding="UTF-8" standalone="no"?><!DOCTYPE svg PUBLIC "-//W3C//DTD SVG 1.1//EN" "http://www.w3.org/Graphics/SVG/1.1/DTD/svg11.dtd"><!-- Generated by graphviz version 2.40.1 (20161225.0304)
 --><!-- Title: Taskflow Pages: 1 --><svg xmlns="http://www.w3.org/2000/svg" xmlns:xlink="http://www.w3.org/1999/xlink" width="364pt" height="175pt" viewBox="0.00 0.00 364.00 175.00">
<g id="graph0" class="graph" transform="scale(1 1) rotate(0) translate(4 171)">
<title>Taskflow</title>
<polygon fill="#ffffff" stroke="transparent" points="-4,4 -4,-171 360,-171 360,4 -4,4"/>
<g id="clust1" class="cluster">
<title>cluster_p0x7ffee1ca26c0</title>
<polygon fill="none" stroke="#000000" points="8,-8 8,-159 348,-159 348,-8 8,-8"/>
<text text-anchor="middle" x="178" y="-142.4" font-family="Times,serif" font-size="14.00" fill="#000000">FindShortestPath Demo</text>
</g>
<!-- p0x7fa807d00030 -->
<g id="node1" class="node">
<title>p0x7fa807d00030</title>
<ellipse fill="none" stroke="#000000" cx="43" cy="-52" rx="27" ry="18"/>
<text text-anchor="middle" x="43" y="-47.8" font-family="Times,serif" font-size="14.00" fill="#000000">A</text>
</g>
<!-- p0x7fa807d00150 -->
<g id="node2" class="node">
<title>p0x7fa807d00150</title>
<ellipse fill="none" stroke="#000000" cx="133" cy="-34" rx="27" ry="18"/>
<text text-anchor="middle" x="133" y="-29.8" font-family="Times,serif" font-size="14.00" fill="#000000">B</text>
</g>
<!-- p0x7fa807d00030&#45;&gt;p0x7fa807d00150 -->
<g id="edge1" class="edge">
<title>p0x7fa807d00030-&gt;p0x7fa807d00150</title>
<path fill="none" stroke="#000000" d="M65.2472,-41.6348C74.4607,-39.0529 85.4012,-36.6169 95.7734,-34.7857"/>
<polygon fill="#000000" stroke="#000000" points="96.5483,-38.2063 105.8712,-33.173 95.4443,-31.2939 96.5483,-38.2063"/>
</g>
<!-- p0x7fa807d00270 -->
<g id="node3" class="node">
<title>p0x7fa807d00270</title>
<ellipse fill="none" stroke="#000000" cx="223" cy="-52" rx="27" ry="18"/>
<text text-anchor="middle" x="223" y="-47.8" font-family="Times,serif" font-size="14.00" fill="#000000">C</text>
</g>
<!-- p0x7fa807d00030&#45;&gt;p0x7fa807d00270 -->
<g id="edge2" class="edge">
<title>p0x7fa807d00030-&gt;p0x7fa807d00270</title>
<path fill="none" stroke="#000000" d="M69.2717,-56.6023C80.5406,-58.3556 93.8772,-60.1385 106,-61 129.9396,-62.7013 136.0604,-62.7013 160,-61 168.7133,-60.3808 178.0536,-59.2856 186.8025,-58.0675"/>
<polygon fill="#000000" stroke="#000000" points="187.3467,-61.5252 196.7283,-56.6023 186.3244,-54.6002 187.3467,-61.5252"/>
</g>
<!-- p0x7fa807d004b0 -->
<g id="node4" class="node">
<title>p0x7fa807d004b0</title>
<ellipse fill="none" stroke="#000000" cx="133" cy="-108" rx="27" ry="18"/>
<text text-anchor="middle" x="133" y="-103.8" font-family="Times,serif" font-size="14.00" fill="#000000">E</text>
</g>
<!-- p0x7fa807d00030&#45;&gt;p0x7fa807d004b0 -->
<g id="edge3" class="edge">
<title>p0x7fa807d00030-&gt;p0x7fa807d004b0</title>
<path fill="none" stroke="#000000" d="M62.9739,-64.4282C75.2085,-72.0408 91.0619,-81.9052 104.5896,-90.3224"/>
<polygon fill="#000000" stroke="#000000" points="102.7423,-93.2952 113.0819,-95.6065 106.4404,-87.3518 102.7423,-93.2952"/>
</g>
<!-- p0x7fa807d00150&#45;&gt;p0x7fa807d00030 -->
<g id="edge5" class="edge">
<title>p0x7fa807d00150-&gt;p0x7fa807d00030</title>
<path fill="none" stroke="#000000" d="M110.8574,-44.3358C101.6011,-46.9345 90.5881,-49.3873 80.1555,-51.2269"/>
<polygon fill="#000000" stroke="#000000" points="79.3276,-47.8146 70.003,-52.8447 80.4292,-54.7274 79.3276,-47.8146"/>
</g>
<!-- p0x7fa807d00150&#45;&gt;p0x7fa807d00270 -->
<g id="edge4" class="edge">
<title>p0x7fa807d00150-&gt;p0x7fa807d00270</title>
<path fill="none" stroke="#000000" d="M159.0317,-39.2063C167.8005,-40.9601 177.7454,-42.9491 187.1362,-44.8272"/>
<polygon fill="#000000" stroke="#000000" points="186.5345,-48.2761 197.0268,-46.8054 187.9074,-41.4121 186.5345,-48.2761"/>
</g>
<!-- p0x7fa807d00390 -->
<g id="node5" class="node">
<title>p0x7fa807d00390</title>
<ellipse fill="none" stroke="#000000" cx="313" cy="-52" rx="27" ry="18"/>
<text text-anchor="middle" x="313" y="-47.8" font-family="Times,serif" font-size="14.00" fill="#000000">D</text>
</g>
<!-- p0x7fa807d00270&#45;&gt;p0x7fa807d00390 -->
<g id="edge6" class="edge">
<title>p0x7fa807d00270-&gt;p0x7fa807d00390</title>
<path fill="none" stroke="#000000" d="M250.003,-52C258.0277,-52 266.9665,-52 275.5309,-52"/>
<polygon fill="#000000" stroke="#000000" points="275.7051,-55.5001 285.705,-52 275.705,-48.5001 275.7051,-55.5001"/>
</g>
</g>
</svg>