<?xml version="1.0" encoding="UTF-8" standalone="no"?><!DOCTYPE svg PUBLIC "-//W3C//DTD SVG 1.1//EN" "http://www.w3.org/Graphics/SVG/1.1/DTD/svg11.dtd"><!-- Generated by graphviz version 2.40.1 (20161225.0304)
 --><!-- Title: Taskflow Pages: 1 --><svg xmlns="http://www.w3.org/2000/svg" xmlns:xlink="http://www.w3.org/1999/xlink" width="212pt" height="245pt" viewBox="0.00 0.00 212.00 244.80">
<g id="graph0" class="graph" transform="scale(1 1) rotate(0) translate(4 240.8)">
<title>Taskflow</title>
<polygon fill="#ffffff" stroke="transparent" points="-4,4 -4,-240.8 208,-240.8 208,4 -4,4"/>
<g id="clust1" class="cluster">
<title>cluster_p0x7ffee9b6a5a8</title>
<polygon fill="none" stroke="#000000" points="8,-8 8,-228.8 196,-228.8 196,-8 8,-8"/>
<text text-anchor="middle" x="102" y="-212.2" font-family="Times,serif" font-size="14.00" fill="#000000">Taskflow: Visualization Demo</text>
</g>
<!-- p0x7fa9ec600030 -->
<g id="node1" class="node">
<title>p0x7fa9ec600030</title>
<ellipse fill="none" stroke="#000000" cx="115" cy="-178" rx="27" ry="18"/>
<text text-anchor="middle" x="115" y="-173.8" font-family="Times,serif" font-size="14.00" fill="#000000">A</text>
</g>
<!-- p0x7fa9ec600150 -->
<g id="node2" class="node">
<title>p0x7fa9ec600150</title>
<ellipse fill="none" stroke="#000000" cx="115" cy="-106" rx="27" ry="18"/>
<text text-anchor="middle" x="115" y="-101.8" font-family="Times,serif" font-size="14.00" fill="#000000">B</text>
</g>
<!-- p0x7fa9ec600030&#45;&gt;p0x7fa9ec600150 -->
<g id="edge1" class="edge">
<title>p0x7fa9ec600030-&gt;p0x7fa9ec600150</title>
<path fill="none" stroke="#000000" d="M115,-159.8314C115,-152.131 115,-142.9743 115,-134.4166"/>
<polygon fill="#000000" stroke="#000000" points="118.5001,-134.4132 115,-124.4133 111.5001,-134.4133 118.5001,-134.4132"/>
</g>
<!-- p0x7fa9ec600270 -->
<g id="node3" class="node">
<title>p0x7fa9ec600270</title>
<ellipse fill="none" stroke="#000000" cx="43" cy="-106" rx="27" ry="18"/>
<text text-anchor="middle" x="43" y="-101.8" font-family="Times,serif" font-size="14.00" fill="#000000">C</text>
</g>
<!-- p0x7fa9ec600030&#45;&gt;p0x7fa9ec600270 -->
<g id="edge2" class="edge">
<title>p0x7fa9ec600030-&gt;p0x7fa9ec600270</title>
<path fill="none" stroke="#000000" d="M99.7307,-162.7307C89.803,-152.803 76.6847,-139.6847 65.5637,-128.5637"/>
<polygon fill="#000000" stroke="#000000" points="67.7933,-125.8436 58.2473,-121.2473 62.8436,-130.7933 67.7933,-125.8436"/>
</g>
<!-- p0x7fa9ec6004b0 -->
<g id="node4" class="node">
<title>p0x7fa9ec6004b0</title>
<ellipse fill="none" stroke="#000000" cx="149" cy="-34" rx="27" ry="18"/>
<text text-anchor="middle" x="149" y="-29.8" font-family="Times,serif" font-size="14.00" fill="#000000">E</text>
</g>
<!-- p0x7fa9ec600030&#45;&gt;p0x7fa9ec6004b0 -->
<g id="edge3" class="edge">
<title>p0x7fa9ec600030-&gt;p0x7fa9ec6004b0</title>
<path fill="none" stroke="#000000" d="M129.1229,-162.2844C137.2535,-152.1468 146.6901,-138.2347 151,-124 157.0954,-103.8683 156.229,-80.0292 154.0361,-61.945"/>
<polygon fill="#000000" stroke="#000000" points="157.5003,-61.4451 152.6343,-52.0339 150.5693,-62.4255 157.5003,-61.4451"/>
</g>
<!-- p0x7fa9ec600150&#45;&gt;p0x7fa9ec6004b0 -->
<g id="edge5" class="edge">
<title>p0x7fa9ec600150-&gt;p0x7fa9ec6004b0</title>
<path fill="none" stroke="#000000" d="M123.2305,-88.5708C127.1979,-80.1691 132.0429,-69.9091 136.4567,-60.5623"/>
<polygon fill="#000000" stroke="#000000" points="139.7401,-61.8057 140.8453,-51.2687 133.4104,-58.8166 139.7401,-61.8057"/>
</g>
<!-- p0x7fa9ec600390 -->
<g id="node5" class="node">
<title>p0x7fa9ec600390</title>
<ellipse fill="none" stroke="#000000" cx="66" cy="-34" rx="27" ry="18"/>
<text text-anchor="middle" x="66" y="-29.8" font-family="Times,serif" font-size="14.00" fill="#000000">D</text>
</g>
<!-- p0x7fa9ec600150&#45;&gt;p0x7fa9ec600390 -->
<g id="edge4" class="edge">
<title>p0x7fa9ec600150-&gt;p0x7fa9ec600390</title>
<path fill="none" stroke="#000000" d="M103.6353,-89.3008C97.5127,-80.3043 89.8363,-69.0247 83.0159,-59.0029"/>
<polygon fill="#000000" stroke="#000000" points="85.8229,-56.9066 77.3031,-50.6087 80.0359,-60.845 85.8229,-56.9066"/>
</g>
<!-- p0x7fa9ec600270&#45;&gt;p0x7fa9ec600390 -->
<g id="edge6" class="edge">
<title>p0x7fa9ec600270-&gt;p0x7fa9ec600390</title>
<path fill="none" stroke="#000000" d="M48.6854,-88.2022C51.2563,-80.1541 54.3534,-70.4588 57.2132,-61.5067"/>
<polygon fill="#000000" stroke="#000000" points="60.5913,-62.4334 60.3003,-51.8425 53.9232,-60.3033 60.5913,-62.4334"/>
</g>
</g>
</svg>